<?xml version="1.0" encoding="utf-8"?>
<!-- Uploaded to: SVG Repo, www.svgrepo.com, Generator: SVG Repo Mixer Tools -->
<svg width="800px" height="800px" viewBox="0 -2.43 87.54 87.54" xmlns="http://www.w3.org/2000/svg" xmlns:xlink="http://www.w3.org/1999/xlink">
  <defs>
    <linearGradient id="linear-gradient" x1="0.5" y1="0.354" x2="0.494" y2="0.997" gradientUnits="objectBoundingBox">
      <stop offset="0" stop-color="#f9a973"/>
      <stop offset="1" stop-color="#e28b3d"/>
    </linearGradient>
  </defs>
  <g id="pizza_new_york" data-name="pizza new york" transform="translate(-1262.719 -1187.821)">
    <path id="Path_309" data-name="Path 309" d="M1270.307,1253.349a112.973,112.973,0,0,0,71.906.15l-36.507-65.615v-.063l-.015.03-.02-.03-.005.063-36.288,65.242A6.144,6.144,0,0,1,1270.307,1253.349Z" fill="#ffd504"/>
    <path id="Path_310" data-name="Path 310" d="M1314.515,1212.544a7.422,7.422,0,1,1-7.42-7.422A7.423,7.423,0,0,1,1314.515,1212.544Z" fill="#ff5245"/>
    <path id="Path_311" data-name="Path 311" d="M1309.4,1208.97a1.128,1.128,0,1,1-1.128-1.131A1.13,1.13,0,0,1,1309.4,1208.97Z" fill="#f8e1e4"/>
    <path id="Path_312" data-name="Path 312" d="M1308.61,1216.464a2.127,2.127,0,1,1-2.13-2.129A2.127,2.127,0,0,1,1308.61,1216.464Z" fill="#f8e1e4"/>
    <path id="Path_313" data-name="Path 313" d="M1304.782,1211.417a1.219,1.219,0,1,1-1.217-1.223A1.217,1.217,0,0,1,1304.782,1211.417Z" fill="#f8e1e4"/>
    <path id="Path_314" data-name="Path 314" d="M1312.39,1214.134a.951.951,0,1,1-.951-.951A.95.95,0,0,1,1312.39,1214.134Z" fill="#f8e1e4"/>
    <path id="Path_315" data-name="Path 315" d="M1332.844,1244.622a7.424,7.424,0,1,1-7.425-7.426A7.424,7.424,0,0,1,1332.844,1244.622Z" fill="#ff5245"/>
    <path id="Path_316" data-name="Path 316" d="M1327.729,1241.046a1.132,1.132,0,1,1-1.137-1.133A1.132,1.132,0,0,1,1327.729,1241.046Z" fill="#f8e1e4"/>
    <path id="Path_317" data-name="Path 317" d="M1326.933,1248.538a2.128,2.128,0,1,1-2.123-2.127A2.126,2.126,0,0,1,1326.933,1248.538Z" fill="#f8e1e4"/>
    <path id="Path_318" data-name="Path 318" d="M1323.112,1243.489a1.224,1.224,0,1,1-1.22-1.22A1.225,1.225,0,0,1,1323.112,1243.489Z" fill="#f8e1e4"/>
    <path id="Path_319" data-name="Path 319" d="M1330.715,1246.206a.952.952,0,1,1-.95-.949A.955.955,0,0,1,1330.715,1246.206Z" fill="#f8e1e4"/>
    <path id="Path_320" data-name="Path 320" d="M1296.246,1245.673a7.423,7.423,0,1,1-7.428-7.424A7.424,7.424,0,0,1,1296.246,1245.673Z" fill="#ff5245"/>
    <path id="Path_321" data-name="Path 321" d="M1291.131,1242.1a1.132,1.132,0,1,1-1.137-1.133A1.134,1.134,0,0,1,1291.131,1242.1Z" fill="#f8e1e4"/>
    <path id="Path_322" data-name="Path 322" d="M1290.334,1249.587a2.127,2.127,0,1,1-2.124-2.127A2.127,2.127,0,0,1,1290.334,1249.587Z" fill="#f8e1e4"/>
    <path id="Path_323" data-name="Path 323" d="M1286.512,1244.54a1.222,1.222,0,1,1-1.224-1.221A1.222,1.222,0,0,1,1286.512,1244.54Z" fill="#f8e1e4"/>
    <path id="Path_324" data-name="Path 324" d="M1294.114,1247.257a.951.951,0,1,1-.947-.951A.949.949,0,0,1,1294.114,1247.257Z" fill="#f8e1e4"/>
    <path id="Path_325" data-name="Path 325" d="M1313.256,1234.091a7.422,7.422,0,1,1-7.42-7.422A7.426,7.426,0,0,1,1313.256,1234.091Z" fill="#f8e1e4"/>
    <path id="Path_326" data-name="Path 326" d="M1325.569,1230.71a3.2,3.2,0,1,1-3.2-3.2A3.2,3.2,0,0,1,1325.569,1230.71Z" fill="#ff5245"/>
    <path id="Path_327" data-name="Path 327" d="M1294.426,1224.612a3.2,3.2,0,1,1-3.2-3.2A3.2,3.2,0,0,1,1294.426,1224.612Z" fill="#ff5245"/>
    <path id="Path_328" data-name="Path 328" d="M1312.986,1252.376a3.2,3.2,0,1,1-3.2-3.2A3.2,3.2,0,0,1,1312.986,1252.376Z" fill="#ff5245"/>
    <g id="Group_126" data-name="Group 126">
      <g id="Group_125" data-name="Group 125">
        <path id="Path_329" data-name="Path 329" d="M1349.938,1257.042c1.053,2.674-.567,5.852-3.653,6.9a124.151,124.151,0,0,1-79.593,0c-3.085-1.05-4.707-4.228-3.65-6.9.109-.281.167-.424.279-.7a5.537,5.537,0,0,1,6.986-2.988,112.949,112.949,0,0,0,72.368,0,5.525,5.525,0,0,1,6.975,2.988C1349.768,1256.618,1349.82,1256.761,1349.938,1257.042Z" fill="url(#linear-gradient)"/>
      </g>
    </g>
  </g>
</svg>